<mxfile host="Electron" modified="2024-01-05T03:10:46.102Z" agent="Mozilla/5.0 (Windows NT 10.0; Win64; x64) AppleWebKit/537.36 (KHTML, like Gecko) draw.io/22.1.16 Chrome/120.0.6099.109 Electron/28.1.0 Safari/537.36" etag="Co6opkkfj2y9o8jrkbeH" version="22.1.16" type="device">
  <diagram name="Page-1" id="W6wwgODH2DVGgfq05W44">
    <mxGraphModel dx="724" dy="497" grid="1" gridSize="10" guides="1" tooltips="1" connect="1" arrows="1" fold="1" page="1" pageScale="1" pageWidth="850" pageHeight="1100" math="0" shadow="0">
      <root>
        <mxCell id="0" />
        <mxCell id="1" parent="0" />
        <mxCell id="fBeSizHoTM2zkZ8skBRZ-15" value="data&lt;br&gt;&lt;br&gt;ptr" style="rounded=0;whiteSpace=wrap;html=1;fillColor=#fad7ac;strokeColor=#b46504;fontFamily=consolas;" parent="1" vertex="1">
          <mxGeometry x="120" y="240" width="40" height="60" as="geometry" />
        </mxCell>
        <mxCell id="fBeSizHoTM2zkZ8skBRZ-1" value="data&lt;br&gt;&lt;br&gt;ptr" style="rounded=0;whiteSpace=wrap;html=1;fillColor=#fad7ac;strokeColor=#b46504;fontFamily=consolas;" parent="1" vertex="1">
          <mxGeometry x="200" y="240" width="40" height="60" as="geometry" />
        </mxCell>
        <mxCell id="fBeSizHoTM2zkZ8skBRZ-5" style="edgeStyle=orthogonalEdgeStyle;rounded=0;orthogonalLoop=1;jettySize=auto;html=1;exitX=0.75;exitY=0.75;exitDx=0;exitDy=0;exitPerimeter=0;dashed=1;" parent="1" source="fBeSizHoTM2zkZ8skBRZ-1" target="fBeSizHoTM2zkZ8skBRZ-2" edge="1">
          <mxGeometry relative="1" as="geometry" />
        </mxCell>
        <mxCell id="fBeSizHoTM2zkZ8skBRZ-2" value="data&lt;br&gt;&lt;br&gt;ptr" style="rounded=0;whiteSpace=wrap;html=1;fillColor=#B0F9E0;strokeColor=#0E8088;fontFamily=consolas;" parent="1" vertex="1">
          <mxGeometry x="280" y="300" width="40" height="60" as="geometry" />
        </mxCell>
        <mxCell id="fBeSizHoTM2zkZ8skBRZ-6" style="edgeStyle=orthogonalEdgeStyle;rounded=0;orthogonalLoop=1;jettySize=auto;html=1;exitX=0.75;exitY=0.75;exitDx=0;exitDy=0;exitPerimeter=0;" parent="1" source="fBeSizHoTM2zkZ8skBRZ-2" target="fBeSizHoTM2zkZ8skBRZ-3" edge="1">
          <mxGeometry relative="1" as="geometry">
            <Array as="points" />
          </mxGeometry>
        </mxCell>
        <mxCell id="fBeSizHoTM2zkZ8skBRZ-3" value="data&lt;br&gt;&lt;br&gt;ptr" style="rounded=0;whiteSpace=wrap;html=1;fillColor=#B0F9E0;strokeColor=#0E8088;fontFamily=consolas;" parent="1" vertex="1">
          <mxGeometry x="360" y="300" width="40" height="60" as="geometry" />
        </mxCell>
        <mxCell id="fBeSizHoTM2zkZ8skBRZ-8" style="edgeStyle=orthogonalEdgeStyle;rounded=0;orthogonalLoop=1;jettySize=auto;html=1;exitX=0.75;exitY=0.75;exitDx=0;exitDy=0;exitPerimeter=0;" parent="1" source="fBeSizHoTM2zkZ8skBRZ-15" target="fBeSizHoTM2zkZ8skBRZ-1" edge="1">
          <mxGeometry relative="1" as="geometry">
            <mxPoint x="150" y="285" as="sourcePoint" />
            <mxPoint x="200" y="270" as="targetPoint" />
            <Array as="points">
              <mxPoint x="180" y="285" />
              <mxPoint x="180" y="270" />
            </Array>
          </mxGeometry>
        </mxCell>
        <mxCell id="fBeSizHoTM2zkZ8skBRZ-16" style="edgeStyle=orthogonalEdgeStyle;rounded=0;orthogonalLoop=1;jettySize=auto;html=1;exitX=0.75;exitY=0.75;exitDx=0;exitDy=0;exitPerimeter=0;" parent="1" edge="1">
          <mxGeometry relative="1" as="geometry">
            <mxPoint x="70" y="285" as="sourcePoint" />
            <mxPoint x="120" y="270" as="targetPoint" />
            <Array as="points">
              <mxPoint x="100" y="285" />
              <mxPoint x="100" y="270" />
            </Array>
          </mxGeometry>
        </mxCell>
        <mxCell id="fBeSizHoTM2zkZ8skBRZ-18" value="data&lt;br&gt;&lt;br&gt;ptr" style="rounded=0;whiteSpace=wrap;html=1;fillColor=#B0F9E0;strokeColor=#0E8088;fontFamily=consolas;" parent="1" vertex="1">
          <mxGeometry x="440" y="300" width="40" height="60" as="geometry" />
        </mxCell>
        <mxCell id="fBeSizHoTM2zkZ8skBRZ-45" style="edgeStyle=orthogonalEdgeStyle;rounded=0;orthogonalLoop=1;jettySize=auto;html=1;exitX=0.5;exitY=0.833;exitDx=0;exitDy=0;exitPerimeter=0;" parent="1" source="fBeSizHoTM2zkZ8skBRZ-18" target="fBeSizHoTM2zkZ8skBRZ-37" edge="1">
          <mxGeometry relative="1" as="geometry">
            <Array as="points">
              <mxPoint x="460" y="390" />
            </Array>
          </mxGeometry>
        </mxCell>
        <mxCell id="fBeSizHoTM2zkZ8skBRZ-19" style="edgeStyle=orthogonalEdgeStyle;rounded=0;orthogonalLoop=1;jettySize=auto;html=1;exitX=0.75;exitY=0.75;exitDx=0;exitDy=0;exitPerimeter=0;dashed=1;" parent="1" source="fBeSizHoTM2zkZ8skBRZ-18" target="fBeSizHoTM2zkZ8skBRZ-20" edge="1">
          <mxGeometry relative="1" as="geometry">
            <Array as="points">
              <mxPoint x="540" y="345" />
            </Array>
          </mxGeometry>
        </mxCell>
        <mxCell id="fBeSizHoTM2zkZ8skBRZ-20" value="data&lt;br&gt;&lt;br&gt;ptr" style="rounded=0;whiteSpace=wrap;html=1;fillColor=#fad7ac;strokeColor=#b46504;fontFamily=consolas;" parent="1" vertex="1">
          <mxGeometry x="520" y="240" width="40" height="60" as="geometry" />
        </mxCell>
        <mxCell id="fBeSizHoTM2zkZ8skBRZ-21" style="edgeStyle=orthogonalEdgeStyle;rounded=0;orthogonalLoop=1;jettySize=auto;html=1;exitX=0.75;exitY=0.75;exitDx=0;exitDy=0;exitPerimeter=0;" parent="1" source="fBeSizHoTM2zkZ8skBRZ-20" target="fBeSizHoTM2zkZ8skBRZ-22" edge="1">
          <mxGeometry relative="1" as="geometry">
            <Array as="points" />
          </mxGeometry>
        </mxCell>
        <mxCell id="fBeSizHoTM2zkZ8skBRZ-22" value="data&lt;br&gt;&lt;br&gt;ptr" style="rounded=0;whiteSpace=wrap;html=1;fillColor=#fad7ac;strokeColor=#b46504;fontFamily=consolas;" parent="1" vertex="1">
          <mxGeometry x="600" y="240" width="40" height="60" as="geometry" />
        </mxCell>
        <mxCell id="fBeSizHoTM2zkZ8skBRZ-23" style="edgeStyle=orthogonalEdgeStyle;rounded=0;orthogonalLoop=1;jettySize=auto;html=1;exitX=0.75;exitY=0.75;exitDx=0;exitDy=0;exitPerimeter=0;" parent="1" source="fBeSizHoTM2zkZ8skBRZ-3" target="fBeSizHoTM2zkZ8skBRZ-18" edge="1">
          <mxGeometry relative="1" as="geometry">
            <mxPoint x="390" y="345" as="sourcePoint" />
            <mxPoint x="440" y="330" as="targetPoint" />
            <Array as="points">
              <mxPoint x="420" y="345" />
              <mxPoint x="420" y="330" />
            </Array>
          </mxGeometry>
        </mxCell>
        <mxCell id="fBeSizHoTM2zkZ8skBRZ-24" style="edgeStyle=orthogonalEdgeStyle;rounded=0;orthogonalLoop=1;jettySize=auto;html=1;exitX=0.75;exitY=0.75;exitDx=0;exitDy=0;exitPerimeter=0;" parent="1" edge="1">
          <mxGeometry relative="1" as="geometry">
            <mxPoint x="630" y="285" as="sourcePoint" />
            <mxPoint x="680" y="270" as="targetPoint" />
            <Array as="points">
              <mxPoint x="660" y="285" />
              <mxPoint x="660" y="270" />
            </Array>
          </mxGeometry>
        </mxCell>
        <mxCell id="fBeSizHoTM2zkZ8skBRZ-25" style="edgeStyle=orthogonalEdgeStyle;rounded=0;orthogonalLoop=1;jettySize=auto;html=1;exitX=0.75;exitY=0.667;exitDx=0;exitDy=0;exitPerimeter=0;" parent="1" source="fBeSizHoTM2zkZ8skBRZ-1" target="fBeSizHoTM2zkZ8skBRZ-20" edge="1">
          <mxGeometry relative="1" as="geometry">
            <Array as="points">
              <mxPoint x="450" y="280" />
              <mxPoint x="450" y="280" />
            </Array>
          </mxGeometry>
        </mxCell>
        <mxCell id="fBeSizHoTM2zkZ8skBRZ-27" value="data&lt;br&gt;&lt;br&gt;ptr" style="rounded=0;whiteSpace=wrap;html=1;fillColor=#b1ddf0;strokeColor=#10739e;fontFamily=consolas;" parent="1" vertex="1">
          <mxGeometry x="120" y="360" width="40" height="60" as="geometry" />
        </mxCell>
        <mxCell id="fBeSizHoTM2zkZ8skBRZ-28" value="data&lt;br&gt;&lt;br&gt;ptr" style="rounded=0;whiteSpace=wrap;html=1;fillColor=#b1ddf0;strokeColor=#10739e;fontFamily=consolas;" parent="1" vertex="1">
          <mxGeometry x="200" y="360" width="40" height="60" as="geometry" />
        </mxCell>
        <mxCell id="fBeSizHoTM2zkZ8skBRZ-44" style="edgeStyle=orthogonalEdgeStyle;rounded=0;orthogonalLoop=1;jettySize=auto;html=1;exitX=0.75;exitY=0.667;exitDx=0;exitDy=0;exitPerimeter=0;" parent="1" source="fBeSizHoTM2zkZ8skBRZ-28" target="fBeSizHoTM2zkZ8skBRZ-2" edge="1">
          <mxGeometry relative="1" as="geometry">
            <Array as="points">
              <mxPoint x="300" y="400" />
            </Array>
          </mxGeometry>
        </mxCell>
        <mxCell id="fBeSizHoTM2zkZ8skBRZ-43" style="edgeStyle=orthogonalEdgeStyle;rounded=0;orthogonalLoop=1;jettySize=auto;html=1;exitX=0.75;exitY=0.833;exitDx=0;exitDy=0;exitPerimeter=0;dashed=1;" parent="1" source="fBeSizHoTM2zkZ8skBRZ-28" target="fBeSizHoTM2zkZ8skBRZ-37" edge="1">
          <mxGeometry relative="1" as="geometry">
            <mxPoint x="230" y="410" as="sourcePoint" />
            <Array as="points">
              <mxPoint x="450" y="410" />
              <mxPoint x="450" y="410" />
            </Array>
          </mxGeometry>
        </mxCell>
        <mxCell id="fBeSizHoTM2zkZ8skBRZ-33" style="edgeStyle=orthogonalEdgeStyle;rounded=0;orthogonalLoop=1;jettySize=auto;html=1;exitX=0.75;exitY=0.75;exitDx=0;exitDy=0;exitPerimeter=0;" parent="1" source="fBeSizHoTM2zkZ8skBRZ-27" target="fBeSizHoTM2zkZ8skBRZ-28" edge="1">
          <mxGeometry relative="1" as="geometry">
            <mxPoint x="150" y="405" as="sourcePoint" />
            <mxPoint x="200" y="390" as="targetPoint" />
            <Array as="points">
              <mxPoint x="180" y="405" />
              <mxPoint x="180" y="390" />
            </Array>
          </mxGeometry>
        </mxCell>
        <mxCell id="fBeSizHoTM2zkZ8skBRZ-34" style="edgeStyle=orthogonalEdgeStyle;rounded=0;orthogonalLoop=1;jettySize=auto;html=1;exitX=0.75;exitY=0.75;exitDx=0;exitDy=0;exitPerimeter=0;" parent="1" edge="1">
          <mxGeometry relative="1" as="geometry">
            <mxPoint x="70" y="405" as="sourcePoint" />
            <mxPoint x="120" y="390" as="targetPoint" />
            <Array as="points">
              <mxPoint x="100" y="405" />
              <mxPoint x="100" y="390" />
            </Array>
          </mxGeometry>
        </mxCell>
        <mxCell id="fBeSizHoTM2zkZ8skBRZ-37" value="data&lt;br&gt;&lt;br&gt;ptr" style="rounded=0;whiteSpace=wrap;html=1;fillColor=#b1ddf0;strokeColor=#10739e;fontFamily=consolas;" parent="1" vertex="1">
          <mxGeometry x="520" y="360" width="40" height="60" as="geometry" />
        </mxCell>
        <mxCell id="fBeSizHoTM2zkZ8skBRZ-38" style="edgeStyle=orthogonalEdgeStyle;rounded=0;orthogonalLoop=1;jettySize=auto;html=1;exitX=0.75;exitY=0.75;exitDx=0;exitDy=0;exitPerimeter=0;" parent="1" source="fBeSizHoTM2zkZ8skBRZ-37" target="fBeSizHoTM2zkZ8skBRZ-39" edge="1">
          <mxGeometry relative="1" as="geometry">
            <Array as="points" />
          </mxGeometry>
        </mxCell>
        <mxCell id="fBeSizHoTM2zkZ8skBRZ-39" value="data&lt;br&gt;&lt;br&gt;ptr" style="rounded=0;whiteSpace=wrap;html=1;fillColor=#b1ddf0;strokeColor=#10739e;fontFamily=consolas;" parent="1" vertex="1">
          <mxGeometry x="600" y="360" width="40" height="60" as="geometry" />
        </mxCell>
        <mxCell id="fBeSizHoTM2zkZ8skBRZ-41" style="edgeStyle=orthogonalEdgeStyle;rounded=0;orthogonalLoop=1;jettySize=auto;html=1;exitX=0.75;exitY=0.75;exitDx=0;exitDy=0;exitPerimeter=0;" parent="1" edge="1">
          <mxGeometry relative="1" as="geometry">
            <mxPoint x="630" y="405" as="sourcePoint" />
            <mxPoint x="680" y="390" as="targetPoint" />
            <Array as="points">
              <mxPoint x="660" y="405" />
              <mxPoint x="660" y="390" />
            </Array>
          </mxGeometry>
        </mxCell>
      </root>
    </mxGraphModel>
  </diagram>
</mxfile>
